<svg viewBox="0 0 11 11" width="220px" height="220px" xmlns="http://www.w3.org/2000/svg"><path fill-rule="evenodd" d="M 0,1 11,1 11,10 10,10 10,11 7,11 7,10 4,10 4,11 1,11 1,10 0,10z" fill="#4580E6"/><path fill-rule="evenodd" d="M 1,2 2,2 2,5 1,5z" fill="#ffffff"/><path fill-rule="evenodd" d="M 4,2 5,2 5,3 4,3z" fill="#ffffff"/><path fill-rule="evenodd" d="M 6,2 7,2 7,3 6,3z" fill="#ffffff"/><path fill-rule="evenodd" d="M 9,2 10,2 10,5 9,5z" fill="#ffffff"/><path fill-rule="evenodd" d="M 3,4 5,4 5,5 3,5z" fill="#ffffff"/><path fill-rule="evenodd" d="M 6,4 8,4 8,5 6,5z" fill="#ffffff"/><path fill-rule="evenodd" d="M 2,5 3,5 3,6 2,6z" fill="#ffffff"/><path fill-rule="evenodd" d="M 8,5 9,5 9,6 8,6z" fill="#ffffff"/><path fill-rule="evenodd" d="M 1,6 2,6 2,8 3,8 3,10 2,10 2,9 1,9z" fill="#ffffff"/><path fill-rule="evenodd" d="M 4,6 5,6 5,7 4,7z" fill="#ffffff"/><path fill-rule="evenodd" d="M 6,6 7,6 7,7 6,7z" fill="#ffffff"/><path fill-rule="evenodd" d="M 9,6 10,6 10,9 9,9 9,10 8,10 8,8 9,8z" fill="#ffffff"/><path fill-rule="evenodd" d="M 5,8 6,8 6,9 5,9z" fill="#ffffff"/></svg>